<mxfile host="Electron" agent="Mozilla/5.0 (Windows NT 10.0; Win64; x64) AppleWebKit/537.36 (KHTML, like Gecko) draw.io/26.2.2 Chrome/134.0.6998.178 Electron/35.1.2 Safari/537.36" version="26.2.2">
  <diagram name="Σελίδα-1" id="8BYGorF-1CgQnMmw-XZW">
    <mxGraphModel dx="746" dy="1052" grid="0" gridSize="10" guides="1" tooltips="1" connect="0" arrows="1" fold="1" page="0" pageScale="1" pageWidth="827" pageHeight="1169" math="0" shadow="0">
      <root>
        <mxCell id="0" />
        <mxCell id="1" parent="0" />
        <mxCell id="7Z3zE21MGDhj2124vMGN-4" style="rounded=0;orthogonalLoop=1;jettySize=auto;html=1;exitX=0.5;exitY=0.5;exitDx=0;exitDy=0;exitPerimeter=0;" parent="1" source="dpwUTuutwJOYTm1G-602-5" target="7Z3zE21MGDhj2124vMGN-3" edge="1">
          <mxGeometry relative="1" as="geometry">
            <mxPoint x="-302.79998779296875" y="-127.20001220703125" as="targetPoint" />
          </mxGeometry>
        </mxCell>
        <mxCell id="7Z3zE21MGDhj2124vMGN-7" value="Βλέπει" style="edgeLabel;html=1;align=center;verticalAlign=middle;resizable=0;points=[];" parent="7Z3zE21MGDhj2124vMGN-4" vertex="1" connectable="0">
          <mxGeometry x="0.1863" y="3" relative="1" as="geometry">
            <mxPoint as="offset" />
          </mxGeometry>
        </mxCell>
        <mxCell id="7Z3zE21MGDhj2124vMGN-5" style="edgeStyle=none;rounded=0;orthogonalLoop=1;jettySize=auto;html=1;exitX=0.5;exitY=0.5;exitDx=0;exitDy=0;exitPerimeter=0;" parent="1" source="dpwUTuutwJOYTm1G-602-5" target="7Z3zE21MGDhj2124vMGN-2" edge="1">
          <mxGeometry relative="1" as="geometry" />
        </mxCell>
        <mxCell id="7Z3zE21MGDhj2124vMGN-8" value="επιλέγει" style="edgeLabel;html=1;align=center;verticalAlign=middle;resizable=0;points=[];" parent="7Z3zE21MGDhj2124vMGN-5" vertex="1" connectable="0">
          <mxGeometry x="-0.0031" y="3" relative="1" as="geometry">
            <mxPoint as="offset" />
          </mxGeometry>
        </mxCell>
        <mxCell id="7Z3zE21MGDhj2124vMGN-6" style="edgeStyle=none;rounded=0;orthogonalLoop=1;jettySize=auto;html=1;exitX=0.5;exitY=0.5;exitDx=0;exitDy=0;exitPerimeter=0;" parent="1" source="dpwUTuutwJOYTm1G-602-5" target="7Z3zE21MGDhj2124vMGN-1" edge="1">
          <mxGeometry relative="1" as="geometry" />
        </mxCell>
        <mxCell id="7Z3zE21MGDhj2124vMGN-12" value="συμπλιρώνει-υποβάλλει" style="edgeLabel;html=1;align=center;verticalAlign=middle;resizable=0;points=[];" parent="7Z3zE21MGDhj2124vMGN-6" vertex="1" connectable="0">
          <mxGeometry x="0.1786" y="4" relative="1" as="geometry">
            <mxPoint as="offset" />
          </mxGeometry>
        </mxCell>
        <mxCell id="dpwUTuutwJOYTm1G-602-5" value="User" style="shape=umlActor;verticalLabelPosition=bottom;verticalAlign=top;html=1;outlineConnect=0;" parent="1" vertex="1">
          <mxGeometry x="-371" y="-129" width="30" height="60" as="geometry" />
        </mxCell>
        <mxCell id="dpwUTuutwJOYTm1G-602-13" value="DataBase" style="ellipse;shape=umlEntity;whiteSpace=wrap;html=1;" parent="1" vertex="1">
          <mxGeometry x="76" y="-282" width="80" height="80" as="geometry" />
        </mxCell>
        <mxCell id="ZvwqGCP4paEtHu8svvuQ-5" value="" style="edgeStyle=none;rounded=0;orthogonalLoop=1;jettySize=auto;html=1;" edge="1" parent="1" source="7Z3zE21MGDhj2124vMGN-1" target="ZvwqGCP4paEtHu8svvuQ-4">
          <mxGeometry relative="1" as="geometry" />
        </mxCell>
        <mxCell id="7Z3zE21MGDhj2124vMGN-1" value="&amp;nbsp;Δημιουργία αγγελίας" style="shape=umlBoundary;whiteSpace=wrap;html=1;" parent="1" vertex="1">
          <mxGeometry x="-240" y="2" width="100" height="80" as="geometry" />
        </mxCell>
        <mxCell id="7Z3zE21MGDhj2124vMGN-10" value="" style="edgeStyle=none;rounded=0;orthogonalLoop=1;jettySize=auto;html=1;" parent="1" source="7Z3zE21MGDhj2124vMGN-2" target="7Z3zE21MGDhj2124vMGN-9" edge="1">
          <mxGeometry relative="1" as="geometry" />
        </mxCell>
        <mxCell id="7Z3zE21MGDhj2124vMGN-2" value="House Icon" style="shape=umlBoundary;whiteSpace=wrap;html=1;" parent="1" vertex="1">
          <mxGeometry x="-228" y="-139" width="100" height="80" as="geometry" />
        </mxCell>
        <mxCell id="ZvwqGCP4paEtHu8svvuQ-2" value="" style="rounded=0;orthogonalLoop=1;jettySize=auto;html=1;" edge="1" parent="1" source="7Z3zE21MGDhj2124vMGN-3" target="ZvwqGCP4paEtHu8svvuQ-1">
          <mxGeometry relative="1" as="geometry" />
        </mxCell>
        <mxCell id="7Z3zE21MGDhj2124vMGN-3" value="Menu Bar" style="shape=umlBoundary;whiteSpace=wrap;html=1;" parent="1" vertex="1">
          <mxGeometry x="-240" y="-282" width="100" height="80" as="geometry" />
        </mxCell>
        <mxCell id="7Z3zE21MGDhj2124vMGN-11" value="" style="edgeStyle=none;rounded=0;orthogonalLoop=1;jettySize=auto;html=1;" parent="1" source="7Z3zE21MGDhj2124vMGN-9" target="7Z3zE21MGDhj2124vMGN-1" edge="1">
          <mxGeometry relative="1" as="geometry" />
        </mxCell>
        <mxCell id="7Z3zE21MGDhj2124vMGN-9" value="Φόρτωση&lt;div&gt;σελίδας&lt;/div&gt;" style="ellipse;shape=umlControl;whiteSpace=wrap;html=1;" parent="1" vertex="1">
          <mxGeometry x="-59" y="-144" width="70" height="80" as="geometry" />
        </mxCell>
        <mxCell id="ZvwqGCP4paEtHu8svvuQ-3" value="" style="rounded=0;orthogonalLoop=1;jettySize=auto;html=1;" edge="1" parent="1" source="ZvwqGCP4paEtHu8svvuQ-1" target="7Z3zE21MGDhj2124vMGN-2">
          <mxGeometry relative="1" as="geometry" />
        </mxCell>
        <mxCell id="ZvwqGCP4paEtHu8svvuQ-1" value="Επεξεργασία&amp;nbsp;&lt;div&gt;Επιλογής&lt;/div&gt;" style="ellipse;shape=umlControl;whiteSpace=wrap;html=1;" vertex="1" parent="1">
          <mxGeometry x="-51" y="-282" width="70" height="80" as="geometry" />
        </mxCell>
        <mxCell id="ZvwqGCP4paEtHu8svvuQ-8" value="" style="edgeStyle=none;rounded=0;orthogonalLoop=1;jettySize=auto;html=1;" edge="1" parent="1" source="ZvwqGCP4paEtHu8svvuQ-4" target="ZvwqGCP4paEtHu8svvuQ-7">
          <mxGeometry relative="1" as="geometry" />
        </mxCell>
        <mxCell id="ZvwqGCP4paEtHu8svvuQ-12" value="Αν υπάρχει λάθος&amp;nbsp;" style="edgeLabel;html=1;align=center;verticalAlign=middle;resizable=0;points=[];" vertex="1" connectable="0" parent="ZvwqGCP4paEtHu8svvuQ-8">
          <mxGeometry x="-0.2393" y="-2" relative="1" as="geometry">
            <mxPoint as="offset" />
          </mxGeometry>
        </mxCell>
        <mxCell id="ZvwqGCP4paEtHu8svvuQ-13" value="" style="edgeStyle=none;rounded=0;orthogonalLoop=1;jettySize=auto;html=1;" edge="1" parent="1" source="ZvwqGCP4paEtHu8svvuQ-4" target="ZvwqGCP4paEtHu8svvuQ-6">
          <mxGeometry relative="1" as="geometry" />
        </mxCell>
        <mxCell id="ZvwqGCP4paEtHu8svvuQ-4" value="Επεξεργασία&lt;div&gt;Υποβολής&amp;nbsp;&lt;/div&gt;&lt;div&gt;Αγγελίας&lt;/div&gt;" style="ellipse;shape=umlControl;whiteSpace=wrap;html=1;" vertex="1" parent="1">
          <mxGeometry x="-80" y="2" width="70" height="80" as="geometry" />
        </mxCell>
        <mxCell id="ZvwqGCP4paEtHu8svvuQ-14" value="" style="edgeStyle=none;rounded=0;orthogonalLoop=1;jettySize=auto;html=1;" edge="1" parent="1" source="ZvwqGCP4paEtHu8svvuQ-6" target="dpwUTuutwJOYTm1G-602-13">
          <mxGeometry relative="1" as="geometry" />
        </mxCell>
        <mxCell id="ZvwqGCP4paEtHu8svvuQ-6" value="Προσωρινή αποθήκευση" style="ellipse;shape=umlControl;whiteSpace=wrap;html=1;" vertex="1" parent="1">
          <mxGeometry x="86" y="2" width="70" height="80" as="geometry" />
        </mxCell>
        <mxCell id="ZvwqGCP4paEtHu8svvuQ-10" value="" style="edgeStyle=none;rounded=0;orthogonalLoop=1;jettySize=auto;html=1;" edge="1" parent="1" source="ZvwqGCP4paEtHu8svvuQ-7" target="ZvwqGCP4paEtHu8svvuQ-9">
          <mxGeometry relative="1" as="geometry" />
        </mxCell>
        <mxCell id="ZvwqGCP4paEtHu8svvuQ-7" value="Οθόνη&amp;nbsp;&lt;div&gt;Εμφάνισης&lt;/div&gt;&lt;div&gt;Προειδοποίησης&lt;/div&gt;" style="shape=umlBoundary;whiteSpace=wrap;html=1;" vertex="1" parent="1">
          <mxGeometry x="-230" y="237" width="100" height="80" as="geometry" />
        </mxCell>
        <mxCell id="ZvwqGCP4paEtHu8svvuQ-11" value="" style="edgeStyle=none;rounded=0;orthogonalLoop=1;jettySize=auto;html=1;" edge="1" parent="1" source="ZvwqGCP4paEtHu8svvuQ-9" target="7Z3zE21MGDhj2124vMGN-1">
          <mxGeometry relative="1" as="geometry" />
        </mxCell>
        <mxCell id="ZvwqGCP4paEtHu8svvuQ-9" value="Εμφάνιση&amp;nbsp;&lt;div&gt;Οθόνης&lt;/div&gt;" style="ellipse;shape=umlControl;whiteSpace=wrap;html=1;" vertex="1" parent="1">
          <mxGeometry x="-217" y="126" width="70" height="80" as="geometry" />
        </mxCell>
        <mxCell id="ZvwqGCP4paEtHu8svvuQ-15" value="Admin" style="shape=umlActor;verticalLabelPosition=bottom;verticalAlign=top;html=1;" vertex="1" parent="1">
          <mxGeometry x="267" y="12" width="30" height="60" as="geometry" />
        </mxCell>
        <mxCell id="ZvwqGCP4paEtHu8svvuQ-18" value="" style="endArrow=classic;startArrow=classic;html=1;rounded=0;entryX=0.38;entryY=0.613;entryDx=0;entryDy=0;entryPerimeter=0;" edge="1" parent="1" source="ZvwqGCP4paEtHu8svvuQ-6" target="ZvwqGCP4paEtHu8svvuQ-15">
          <mxGeometry width="50" height="50" relative="1" as="geometry">
            <mxPoint x="130" y="8" as="sourcePoint" />
            <mxPoint x="180" y="-42" as="targetPoint" />
          </mxGeometry>
        </mxCell>
      </root>
    </mxGraphModel>
  </diagram>
</mxfile>
